# xmcd CD database file
#
# Track frame offsets:
#	187
#	17400
#	34590
#	63735
#
# Disc length: 1132 seconds
#
# Revision: 0
# Processed by: cddbd v1.5.1PL0 Copyright (c) Steve Scherf et al.
# Submitted via: CDex 1.51
#
DISCID=29046a04
DTITLE=寺田恵子 - TBSテレビアニメーション 逮捕しちゃうぞ エンディングテーマ Thank you, love ・ 寺田恵子〜夏実TYPE
DYEAR=1996
DGENRE=Anime
TTITLE0=Thank you, love
TTITLE1=Thank you, love （オリジナル・カラオケ）
TTITLE2=実録レコーディングドキュメント〜夏実の場合
TTITLE3=辻本夏実 with S - Hey! Magic!!
EXTD=YEAR: 1996
EXTT0=
EXTT1=
EXTT2=
EXTT3=
PLAYORDER=
